<svg width="60" height="48" viewBox="0 0 60 48" xmlns="http://www.w3.org/2000/svg" xmlns:xlink="http://www.w3.org/1999/xlink"><defs><path id="a" d="M0 26h60V.3H0z"/></defs><g fill="none" fill-rule="evenodd"><path fill="#3B3E40" d="M26.1 32.6h1.1v-2.301h-1.1zm7.699-.2h.8v-2h-.8zm-3.1989-6.4002h.6v-.7h-.1v-.9h-2.2v.9h-.2v.7h.7v3.2h-1.9v4.901h6.1v-4.901h-3zm-4.9996-11.5999v4.8l.4.3v-5.4zm8.3997 5.1003l.4-.301v-4.799l-.4-.3zM0 25h11.9v-.8H0zm12.7-.7h8.501v-.7H12.7zm.1999-7.3002h-2.2l-.3 2.4h2.8zM11 23.3h3.5v-1.6H11z"/><g transform="translate(0 11.7)"><path d="M42.5 24l.3-.2-.9-1.7-.3.1-6.2-12.5h.8v.4H39v-.4h12.5v.1h.7l.4.6-.6.3v1.4h4.3V9.8h.2V7.5h-.3v-.4L56 3l-.5-.2h-.9l-.2 3.5-.3.8.2.2-.3.4h-2.4V8H39v-.4h-2.8V8h-2.4V.6L32.3.3h-4.4l-1.6.3V8h-2.4v-.4H21V8H8.4v-.3H6l-.3-.4.2-.2-.3-.8-.2-3.5h-.9L4 3l-.1 4.1v.4h-.3v2.3h.2v2.3H8v-1.4l-.7-.3.4-.6h.7v-.1H21v.4h2.8v-.4h.8l-6.2 12.6-.3-.1-.9 1.7.3.1c-.4.1-.7.5-.7 1 0 .6.5 1 1 1 .6 0 1-.5 1-1 0-.1 0-.3-.1-.4l.2.1.9-1.7-.2-.1 6.5-13.2h.2v.6h.3v.9H29v.5h-.1v.7h2.2v-.7h-.2v-.5h2.4v-.9h.4v-.6h.2l6.5 13.2-.2.1.9 1.7.2-.1c0 .1-.1.3-.1.4 0 .6.5 1 1 1 .6 0 1-.5 1-1s-.3-.9-.7-1zM32.4 10.8h-5v-.5h5v.5z" fill="#3B3E40"/><mask id="b" fill="#fff"><use xlink:href="#a"/></mask><path fill="#3B3E40" mask="url(#b)" d="M48.1 13.3H60v-.8H48.1zm-9.3-.7h8.5v-.7h-8.5zm10.4998-7.3002h-2.2l-.3 2.4h2.8zM45.5 11.6H49V10h-3.5z"/></g></g></svg>